<svg width="145" height="36" viewBox="0 0 145 36" fill="none" xmlns="http://www.w3.org/2000/svg">
<path fill-rule="evenodd" clip-rule="evenodd" d="M39.8535 24.0839C41.0775 23.0519 41.6895 21.8879 41.6895 20.5919C41.6655 19.7519 41.3535 18.9719 40.7535 18.2519C40.1535 17.5319 39.4935 16.9679 38.7735 16.5599C36.9015 15.4799 35.9655 14.6279 35.9655 14.0039C35.9655 13.1159 36.9135 12.3719 38.8095 11.7719C39.7695 11.4839 40.4895 11.3399 40.9695 11.3399C40.9455 10.6439 40.7415 9.97192 40.3575 9.32393C39.9735 8.65193 39.6615 8.31592 39.4215 8.31592C37.3575 8.31592 35.4135 8.92793 33.5895 10.1519C31.7655 11.3759 30.8535 12.7199 30.8535 14.1839C30.8535 14.8799 31.1535 15.5519 31.7535 16.1999C32.3535 16.8239 33.0135 17.3279 33.7335 17.7119C34.4535 18.0959 35.1135 18.5399 35.7135 19.0439C36.3135 19.5479 36.6135 20.0279 36.6135 20.4839C36.6135 21.1799 36.1215 21.8519 35.1375 22.4999C34.1535 23.1479 32.7255 23.4719 30.8535 23.4719V23.7239C30.8535 24.7799 31.1535 25.7039 31.7535 26.4959C31.9695 26.7839 32.1375 26.9279 32.2575 26.9279C33.3135 26.9279 34.5375 26.6999 35.9295 26.2439C37.3455 25.8119 38.6535 25.0919 39.8535 24.0839ZM44.2255 5.25593L44.3335 17.7479C44.3335 21.8999 44.2375 24.5039 44.0455 25.5599C44.0455 25.6319 44.1415 25.6679 44.3335 25.6679C46.2535 25.6679 47.5735 25.3439 48.2935 24.6959C48.4135 24.5999 48.4735 23.6039 48.4735 21.7079C48.4735 19.8119 48.4495 18.0359 48.4015 16.3799L48.7255 15.6959C48.9175 15.2399 49.2655 14.7839 49.7695 14.3279C50.2735 13.8719 50.8135 13.6439 51.3895 13.6439C52.2775 13.6439 52.8655 14.1599 53.1535 15.1919C53.4415 16.2239 53.5855 17.7359 53.5855 19.7279C53.5855 21.7199 53.4655 23.7959 53.2255 25.9559L54.4135 26.1359C54.8935 26.1359 55.5055 26.0639 56.2495 25.9199C56.9935 25.7759 57.4015 25.6079 57.4735 25.4159L57.6175 20.6279C57.6175 18.6839 57.5815 17.0759 57.5095 15.8039C57.4375 14.8679 57.3415 14.1359 57.2215 13.6079C57.1255 13.0559 56.9695 12.4679 56.7535 11.8439C56.5375 11.1959 56.2735 10.7039 55.9615 10.3679C55.6495 10.0319 55.2535 9.74393 54.7735 9.50393C54.3175 9.26393 53.7295 9.14392 53.0095 9.14392C52.3135 9.14392 51.5575 9.35993 50.7415 9.79193C49.9495 10.1999 49.4215 10.5239 49.1575 10.7639L48.4375 11.4839C48.3655 11.4839 48.3295 11.4239 48.3295 11.3039V10.9799C48.3295 10.0679 48.3655 8.14792 48.4375 5.21992C48.5095 2.29192 48.5575 0.719925 48.5815 0.503925C48.5815 0.407924 48.2815 0.359924 47.6815 0.359924C47.0815 0.359924 46.4575 0.491925 45.8095 0.755926C45.1615 1.01993 44.6935 1.29593 44.4055 1.58393C44.2855 1.70393 44.2255 2.92793 44.2255 5.25593ZM60.8586 11.6999L60.9306 19.8719C60.9306 22.7279 60.8466 24.6239 60.6786 25.5599C60.6786 25.6319 60.7746 25.6679 60.9666 25.6679C62.9346 25.6679 64.2546 25.3439 64.9266 24.6959C64.9986 24.6239 65.0346 23.1479 65.0346 20.2679V17.0999C65.0346 16.8119 65.2266 16.3799 65.6106 15.8039C66.5946 14.3879 67.9506 13.6799 69.6786 13.6799L70.1466 13.7519L70.2906 13.4639C70.6266 12.8879 70.7946 11.9159 70.7946 10.5479C70.7946 9.89993 70.6986 9.41992 70.5066 9.10793C69.3306 9.10793 68.2266 9.44393 67.1946 10.1159C66.7866 10.3559 66.4026 10.6439 66.0426 10.9799C65.7066 11.3159 65.4786 11.5559 65.3586 11.6999C65.2626 11.8199 65.1906 11.9159 65.1426 11.9879C65.0946 12.0359 65.0466 12.0599 64.9986 12.0599C64.9506 12.0599 64.9266 11.6519 64.9266 10.8359C64.9266 9.99592 64.9626 9.25192 65.0346 8.60393C65.0346 8.48393 64.7466 8.42393 64.1706 8.42393C63.6186 8.42393 63.0186 8.53193 62.3706 8.74792C61.7226 8.93993 61.2666 9.16792 61.0026 9.43193C60.9066 9.52793 60.8586 10.2839 60.8586 11.6999ZM85.0568 23.1839C86.4488 21.5039 87.1448 19.5239 87.1448 17.2439C87.1448 16.2839 87.0128 15.4199 86.7488 14.6519C86.4848 13.8599 86.1728 13.2479 85.8128 12.8159C85.4528 12.3839 84.9848 11.9639 84.4088 11.5559C83.8568 11.1239 83.4008 10.9079 83.0408 10.9079C83.1128 10.4759 83.1488 10.0799 83.1488 9.71992C83.1488 9.35993 83.1008 9.13193 83.0048 9.03592C82.9088 8.93993 82.2848 8.86792 81.1328 8.81993C78.3008 8.81993 76.0448 9.73193 74.3648 11.5559C72.7088 13.3559 71.8808 15.4319 71.8808 17.7839C71.8808 20.1119 72.5528 22.0079 73.8968 23.4719C75.2408 24.9359 77.0888 25.6679 79.4408 25.6679C81.8168 25.6679 83.6888 24.8399 85.0568 23.1839ZM80.2688 14.1839C80.7968 14.1839 81.3368 14.3639 81.8888 14.7239C82.6328 15.1799 83.0048 16.1399 83.0048 17.6039C83.0048 19.0679 82.6448 20.1719 81.9248 20.9159C81.2288 21.6599 80.4728 22.0319 79.6568 22.0319C78.8648 22.0319 78.2408 21.8879 77.7848 21.5999C76.5848 20.8799 75.9848 19.5839 75.9848 17.7119C75.9848 16.1279 76.4048 14.8919 77.2448 14.0039C78.1088 13.1159 79.0328 12.6719 80.0168 12.6719C79.9448 12.9599 79.9088 13.2599 79.9088 13.5719C79.9088 13.8839 79.9328 14.0879 79.9808 14.1839H80.2688ZM102.494 23.1839C103.886 21.5039 104.582 19.5239 104.582 17.2439C104.582 16.2839 104.45 15.4199 104.186 14.6519C103.922 13.8599 103.61 13.2479 103.25 12.8159C102.89 12.3839 102.422 11.9639 101.846 11.5559C101.294 11.1239 100.838 10.9079 100.478 10.9079C100.55 10.4759 100.586 10.0799 100.586 9.71992C100.586 9.35993 100.538 9.13193 100.442 9.03592C100.346 8.93993 99.7223 8.86792 98.5703 8.81993C95.7383 8.81993 93.4823 9.73193 91.8023 11.5559C90.1463 13.3559 89.3183 15.4319 89.3183 17.7839C89.3183 20.1119 89.9903 22.0079 91.3343 23.4719C92.6783 24.9359 94.5263 25.6679 96.8783 25.6679C99.2543 25.6679 101.126 24.8399 102.494 23.1839ZM97.7063 14.1839C98.2343 14.1839 98.7743 14.3639 99.3263 14.7239C100.07 15.1799 100.442 16.1399 100.442 17.6039C100.442 19.0679 100.082 20.1719 99.3623 20.9159C98.6663 21.6599 97.9103 22.0319 97.0943 22.0319C96.3023 22.0319 95.6783 21.8879 95.2223 21.5999C94.0223 20.8799 93.4223 19.5839 93.4223 17.7119C93.4223 16.1279 93.8423 14.8919 94.6823 14.0039C95.5463 13.1159 96.4703 12.6719 97.4543 12.6719C97.3823 12.9599 97.3463 13.2599 97.3463 13.5719C97.3463 13.8839 97.3703 14.0879 97.4183 14.1839H97.7063ZM107.62 11.8079L107.728 20.2679C107.728 22.7639 107.644 24.5279 107.476 25.5599C107.476 25.6319 107.572 25.6679 107.764 25.6679C109.684 25.6679 110.944 25.3799 111.544 24.8039C111.64 24.6839 111.688 23.4479 111.688 21.0959L111.652 17.2799V16.5239C111.652 16.1159 111.916 15.5279 112.444 14.7599C112.972 13.9919 113.62 13.6079 114.388 13.6079C115.156 13.6079 115.624 13.9559 115.792 14.6519C115.984 15.3239 116.08 16.5119 116.08 18.2159C116.08 19.8959 115.972 21.7079 115.756 23.6519L116.908 23.8319C117.388 23.8319 118.012 23.7599 118.78 23.6159C119.548 23.4719 119.932 23.3039 119.932 23.1119L120.076 20.2679C120.076 17.4839 120.04 15.7079 119.968 14.9399C119.968 14.8679 120.04 14.7119 120.184 14.4719C120.352 14.2319 120.616 13.9919 120.976 13.7519C121.336 13.4879 121.744 13.3559 122.2 13.3559C122.656 13.3559 123.028 13.4999 123.316 13.7879C123.628 14.0519 123.856 14.5079 124 15.1559C124.144 15.7799 124.228 16.4159 124.252 17.0639C124.3 17.6879 124.324 18.7319 124.324 20.1959C124.324 21.6599 124.192 23.5799 123.928 25.9559L125.08 26.1359C125.56 26.1359 126.196 26.0519 126.988 25.8839C127.78 25.7399 128.176 25.5839 128.176 25.4159L128.32 21.2039C128.32 18.9959 128.248 16.8599 128.104 14.7959C127.984 13.3799 127.588 11.9639 126.916 10.5479C126.268 9.27592 125.2 8.63993 123.712 8.63993C122.056 8.63993 120.544 9.59993 119.176 11.5199C118.384 10.1279 117.208 9.43193 115.648 9.43193C115.072 9.43193 114.436 9.63593 113.74 10.0439C113.068 10.4279 112.6 10.7399 112.336 10.9799C112.096 11.1959 111.928 11.3639 111.832 11.4839C111.736 11.5799 111.664 11.6279 111.616 11.6279C111.568 11.6279 111.544 11.3519 111.544 10.7999C111.544 10.2479 111.592 9.44392 111.688 8.38793C111.688 8.29192 111.412 8.24392 110.86 8.24392C110.308 8.24392 109.732 8.36392 109.132 8.60393C108.532 8.81993 108.088 9.05993 107.8 9.32393C107.68 9.44393 107.62 10.2719 107.62 11.8079ZM143.762 29.2679C144.266 27.8039 144.518 26.1359 144.518 24.2639L144.482 14.6879C144.482 11.9279 144.578 9.98392 144.77 8.85593C144.77 8.78393 144.53 8.74792 144.05 8.74792C143.57 8.74792 142.934 8.83193 142.142 8.99993C141.374 9.16793 140.834 9.40793 140.522 9.71992C140.402 9.83992 140.342 10.7759 140.342 12.5279C140.342 14.2559 140.366 15.8759 140.414 17.3879L140.234 18.0719C140.114 18.5279 139.814 18.9959 139.334 19.4759C138.878 19.9319 138.254 20.1599 137.462 20.1599C136.67 20.1599 136.106 19.6199 135.77 18.5399C135.434 17.4599 135.266 16.1039 135.266 14.4719C135.266 12.8399 135.398 10.8359 135.662 8.45992L134.51 8.27993C134.03 8.27993 133.418 8.36392 132.674 8.53193C131.954 8.69993 131.594 8.86793 131.594 9.03592L131.486 9.53993C131.294 10.7399 131.198 12.2879 131.198 14.1839C131.198 15.5519 131.246 16.8719 131.342 18.1439C131.39 19.0559 131.474 19.7759 131.594 20.3039C131.714 20.8319 131.882 21.4079 132.098 22.0319C132.314 22.6319 132.578 23.0999 132.89 23.4359C133.226 23.7719 133.634 24.0479 134.114 24.2639C134.618 24.4799 135.29 24.5879 136.13 24.5879C136.994 24.5879 137.846 24.2999 138.686 23.7239C138.998 23.5079 139.286 23.2679 139.55 23.0039C139.838 22.7159 140.018 22.5239 140.09 22.4279C140.162 22.3079 140.222 22.2119 140.27 22.1399C140.318 22.0679 140.366 22.0319 140.414 22.0319C140.462 22.0319 140.486 22.1039 140.486 22.2479L140.522 23.2919C140.522 25.9319 140.15 27.8399 139.406 29.0159C139.046 29.6159 138.686 30.1079 138.326 30.4919C137.966 30.8999 137.33 31.2719 136.418 31.6079C135.506 31.9679 134.594 32.1479 133.682 32.1479C133.682 32.6759 133.778 33.2399 133.97 33.8399C134.162 34.4639 134.366 34.9559 134.582 35.3159C134.798 35.6759 134.942 35.8559 135.014 35.8559C136.55 35.8559 138.062 35.4359 139.55 34.5959C140.462 34.0919 141.266 33.4439 141.962 32.6519C142.682 31.8599 143.282 30.7319 143.762 29.2679ZM0.19762 12.5169C-0.1411 10.5873 4.57676 6.88875 6.97803 5.28066C10.1811 3.72898 11.9153 3.78682 15.0298 5.28066C17.0073 6.18251 21.1449 8.73593 21.8751 11.7348C22.7348 15.2659 15.7228 16.3776 13.1335 16.278C13.492 17.8426 15.2841 22.0157 19.4303 24.154C23.5766 26.2924 20.2018 26.8487 17.9961 26.8596C15.9306 26.5211 15.2418 26.1112 14.0845 25.3601C14.204 26.3815 13.8336 27.5044 11.8028 28.1308C9.6478 28.7955 8.16309 27.6335 7.72822 26.4358C7.55405 26.1533 7.25798 25.4449 7.46697 24.8712C6.73914 26.2511 4.59244 28.8349 1.82826 28.1308C-0.935917 27.4267 -0.062575 25.7513 1.17633 25.5557C2.41524 25.3601 7.89958 22.719 8.70797 16.278L8.70376 16.2775C6.56211 16.0183 0.687449 15.3073 0.19762 12.5169Z" fill="url(#paint0_linear_6340_29259)"/>
<defs>
<linearGradient id="paint0_linear_6340_29259" x1="3.65069" y1="18.108" x2="126.861" y2="18.108" gradientUnits="userSpaceOnUse">
<stop stop-color="#4E80EE"/>
<stop offset="0.305" stop-color="#49AF7B"/>
<stop offset="0.625" stop-color="#FCD34D"/>
<stop offset="0.9" stop-color="#DA5597"/>
</linearGradient>
</defs>
</svg>
